<?xml version="1.0" standalone="no"?>
<!DOCTYPE svg PUBLIC "-//W3C//DTD SVG 20010904//EN"
 "http://www.w3.org/TR/2001/REC-SVG-20010904/DTD/svg10.dtd">
<svg version="1.0" xmlns="http://www.w3.org/2000/svg"
 width="300.000000pt" height="300.000000pt" viewBox="0 0 300.000000 300.000000"
 preserveAspectRatio="xMidYMid meet">
<metadata>
Created by potrace 1.11, written by Peter Selinger 2001-2013
</metadata>
<g transform="translate(0.000000,300.000000) scale(0.100000,-0.100000)"
fill="#000000" stroke="none">
<path d="M1156 2981 c-12 -13 -16 -46 -18 -140 l-3 -123 -87 -33 c-47 -18
-101 -41 -118 -50 l-32 -17 -70 71 c-98 100 -115 112 -142 101 -12 -4 -124
-110 -249 -235 -167 -167 -227 -234 -227 -251 0 -16 27 -51 85 -110 47 -47 85
-89 85 -94 0 -4 -15 -40 -34 -81 -19 -41 -39 -92 -46 -114 l-12 -41 -116 1
c-139 1 -147 0 -159 -28 -5 -12 -9 -166 -8 -344 0 -284 2 -325 17 -339 13 -13
39 -16 140 -16 l125 -1 17 -51 c9 -28 31 -81 49 -118 l33 -68 -89 -90 c-71
-73 -88 -95 -85 -115 5 -39 454 -485 488 -485 18 0 48 24 109 85 47 47 88 85
91 85 4 0 40 -15 81 -34 41 -19 93 -40 117 -47 l42 -12 0 -128 c0 -116 2 -129
20 -142 26 -18 654 -19 685 0 18 11 20 23 21 140 l1 128 59 21 c33 12 84 33
115 47 31 15 59 27 62 27 3 0 44 -38 90 -85 64 -64 91 -85 111 -85 39 0 489
449 489 489 0 20 -21 47 -87 112 l-87 86 32 68 c17 38 39 91 49 119 l17 51 99
2 c54 1 111 2 126 2 58 2 58 2 58 360 0 260 -3 331 -14 346 -12 16 -28 18
-141 19 l-127 1 -27 75 c-16 41 -38 94 -50 118 -26 50 -29 43 68 136 73 70 92
102 80 131 -4 11 -109 121 -233 244 -176 175 -231 224 -251 224 -18 0 -45 -20
-94 -69 -114 -116 -102 -109 -153 -83 -23 12 -77 34 -118 49 l-75 28 0 126 c0
88 -4 129 -13 138 -10 10 -92 13 -347 15 -303 1 -335 0 -349 -16z"/>
</g>
</svg>
