<?xml version="1.0" encoding="iso-8859-1"?>
<!-- Generator: Adobe Illustrator 19.0.0, SVG Export Plug-In . SVG Version: 6.00 Build 0)  -->
<svg version="1.1" id="Layer_1" xmlns="http://www.w3.org/2000/svg" xmlns:xlink="http://www.w3.org/1999/xlink" x="0px" y="0px"
	 viewBox="0 0 512 512" style="enable-background:new 0 0 512 512;" xml:space="preserve" width="32px" height="32px">
<path style="fill:#FBB429;" d="M501.801,213.374L324.879,36.453V142.94h-59.905c-140.708,0-254.775,114.066-254.775,254.775v77.833
	l92.966-101.742c52.389-57.335,126.474-89.996,204.14-89.996h17.574v106.487L501.801,213.374z"/>
<g>
	<path style="fill:#4D4D4D;" d="M10.197,485.747c-1.238,0-2.488-0.225-3.687-0.691c-3.925-1.523-6.51-5.3-6.51-9.509v-77.833
		c0-70.777,27.562-137.318,77.609-187.365c50.047-50.046,116.588-77.609,187.366-77.609h49.705V36.453
		c0-4.125,2.486-7.844,6.296-9.423c3.811-1.579,8.198-0.707,11.115,2.21l176.923,176.922c1.912,1.912,2.987,4.507,2.987,7.212
		c0,2.705-1.075,5.299-2.987,7.212L332.09,397.509c-2.917,2.916-7.304,3.791-11.115,2.21c-3.81-1.579-6.296-5.297-6.296-9.423
		v-96.288h-7.374c-74.616,0-146.278,31.593-196.611,86.677L17.728,482.427C15.758,484.584,13.007,485.747,10.197,485.747z
		 M264.974,153.139c-134.86,0-244.576,109.716-244.576,244.575v51.551l75.237-82.339c54.187-59.303,131.338-93.316,211.669-93.316
		h17.573c5.632,0,10.199,4.566,10.199,10.199v81.864l152.299-152.299L335.077,61.076v81.864c0,5.633-4.567,10.199-10.199,10.199
		H264.974z"/>
	<path style="fill:#4D4D4D;" d="M247.503,190.884c-5.444,0-9.963-4.3-10.184-9.789c-0.227-5.628,4.152-10.375,9.78-10.601
		c2.762-0.111,5.571-0.168,8.35-0.168c5.633,0,10.199,4.566,10.199,10.199c0,5.633-4.566,10.199-10.199,10.199
		c-2.507,0-5.039,0.051-7.529,0.151C247.781,190.882,247.642,190.884,247.503,190.884z"/>
	<path style="fill:#4D4D4D;" d="M140.757,228.2c-3.139,0-6.236-1.444-8.234-4.169c-3.33-4.543-2.348-10.925,2.196-14.255
		c22.329-16.37,47.27-27.846,74.131-34.11c5.49-1.279,10.97,2.131,12.249,7.616c1.279,5.486-2.131,10.97-7.616,12.249
		c-24.164,5.635-46.607,15.963-66.704,30.696C144.962,227.558,142.85,228.2,140.757,228.2z"/>
</g>
<g>
</g>
<g>
</g>
<g>
</g>
<g>
</g>
<g>
</g>
<g>
</g>
<g>
</g>
<g>
</g>
<g>
</g>
<g>
</g>
<g>
</g>
<g>
</g>
<g>
</g>
<g>
</g>
<g>
</g>
</svg>
