<?xml version="1.0" encoding="utf-8"?>
<!-- Generated by IcoMoon.io -->
<!DOCTYPE svg PUBLIC "-//W3C//DTD SVG 1.1//EN" "http://www.w3.org/Graphics/SVG/1.1/DTD/svg11.dtd">
<svg version="1.1" xmlns="http://www.w3.org/2000/svg" xmlns:xlink="http://www.w3.org/1999/xlink" width="32px" height="32px" viewBox="0 0 512 512">
<g>
</g>
	<path d="M256.010 53.207c-111.8 0-202.782 90.972-202.782 202.782 0 111.821 90.982 202.803 202.782 202.803s202.773-90.983 202.773-202.803c0-111.81-90.972-202.782-202.773-202.782zM256.113 76.165c55.030 0 104.325 24.678 137.421 63.57-1.986 0.051-4.075 0.266-6.308 0.604 0 0-35.298 8.182-7.373 65.516 0 0 17.152 46.736-10.68 109.824l-15.719 40.458-54.784-146.166c0 0-3.246-15.575 13.127-15.575l13.087-0.809 0.215-8.837h-126.147v7.966c0 0 22.006-0.143 31.006 14.992l22.507 57.334-40.325 96.317-59.955-150.466c0 0-1.894-17.561 15.073-17.234l7.69 0.297-0.297-9.206-84.45 0.839c27.576-64.328 91.484-109.424 165.909-109.424zM75.684 256.604c0-17.726 2.57-34.806 7.322-50.995l0.604 1.147 84.316 207.278c-55.050-30.904-92.242-89.826-92.242-157.43zM256.113 436.992c-19.988 0-39.209-3.216-57.16-9.236l61.686-143.565 55.070 142.736c-18.668 6.512-38.748 10.066-59.597 10.066zM436.521 256.604c0 66.212-35.635 124.017-88.801 155.402l80.63-209.193c5.356 16.988 8.171 35.052 8.171 53.79z" fill="#444444" />
	<path d="M420.034 18.412h-328.059c-40.602 0-73.585 32.932-73.585 73.575v328.059c0 40.632 32.983 73.554 73.585 73.554h328.048c40.612 0 73.575-32.921 73.575-73.554v-328.069c0-40.633-32.962-73.564-73.564-73.564zM256.010 468.091c-116.951 0-212.071-95.14-212.071-212.101 0-116.93 95.119-212.060 212.071-212.060 116.962 0 212.071 95.13 212.071 212.060 0 116.962-95.109 212.101-212.071 212.101z" fill="#444444" />
</svg>
